<svg width="210" height="59" viewBox="0 0 210 59" fill="none" xmlns="http://www.w3.org/2000/svg">
<path d="M17.7654 58.8182V0.63636H21.4927V58.8182H17.7654ZM27.6517 19.8409C27.4699 18.0076 26.6896 16.5833 25.3108 15.5682C23.9321 14.553 22.0608 14.0455 19.6972 14.0455C18.0911 14.0455 16.7351 14.2727 15.629 14.7273C14.523 15.1667 13.6745 15.7803 13.0836 16.5682C12.5078 17.3561 12.2199 18.25 12.2199 19.25C12.1896 20.0833 12.3639 20.8106 12.7427 21.4318C13.1366 22.053 13.6745 22.5909 14.3563 23.0455C15.0381 23.4848 15.826 23.8712 16.7199 24.2045C17.6139 24.5227 18.5684 24.7955 19.5836 25.0227L23.7654 26.0227C25.7957 26.4773 27.6593 27.0833 29.3563 27.8409C31.0533 28.5985 32.523 29.5303 33.7654 30.6364C35.0078 31.7424 35.9699 33.0455 36.6517 34.5455C37.3487 36.0455 37.7048 37.7652 37.7199 39.7045C37.7048 42.553 36.9775 45.0227 35.5381 47.1136C34.1139 49.1894 32.0533 50.803 29.3563 51.9545C26.6745 53.0909 23.4396 53.6591 19.6517 53.6591C15.8942 53.6591 12.6214 53.0833 9.83357 51.9318C7.06084 50.7803 4.89417 49.0758 3.33357 46.8182C1.78811 44.5455 0.977505 41.7348 0.901747 38.3864H10.4245C10.5305 39.947 10.9775 41.25 11.7654 42.2955C12.5684 43.3258 13.6366 44.1061 14.9699 44.6364C16.3184 45.1515 17.8411 45.4091 19.5381 45.4091C21.2048 45.4091 22.6517 45.1667 23.879 44.6818C25.1214 44.197 26.0836 43.5227 26.7654 42.6591C27.4472 41.7955 27.7881 40.803 27.7881 39.6818C27.7881 38.6364 27.4775 37.7576 26.8563 37.0455C26.2502 36.3333 25.3563 35.7273 24.1745 35.2273C23.0078 34.7273 21.576 34.2727 19.879 33.8636L14.8108 32.5909C10.8866 31.6364 7.78811 30.1439 5.51538 28.1136C3.24266 26.0833 2.11387 23.3485 2.12902 19.9091C2.11387 17.0909 2.86387 14.6288 4.37902 12.5227C5.90932 10.4167 8.00781 8.77273 10.6745 7.59091C13.3411 6.40909 16.3714 5.81818 19.7654 5.81818C23.2199 5.81818 26.2351 6.40909 28.8108 7.59091C31.4017 8.77273 33.4169 10.4167 34.8563 12.5227C36.2957 14.6288 37.0381 17.0682 37.0836 19.8409H27.6517ZM44.0665 53V45.9091L60.6347 30.5682C62.0438 29.2045 63.2256 27.9773 64.1802 26.8864C65.1499 25.7955 65.8847 24.7273 66.3847 23.6818C66.8847 22.6212 67.1347 21.4773 67.1347 20.25C67.1347 18.8864 66.8241 17.7121 66.2029 16.7273C65.5817 15.7273 64.7332 14.9621 63.6574 14.4318C62.5817 13.8864 61.362 13.6136 59.9983 13.6136C58.5741 13.6136 57.3317 13.9015 56.2711 14.4773C55.2105 15.053 54.3923 15.8788 53.8165 16.9545C53.2408 18.0303 52.9529 19.3106 52.9529 20.7955H43.612C43.612 17.75 44.3014 15.1061 45.6802 12.8636C47.0589 10.6212 48.9908 8.88636 51.4756 7.65909C53.9605 6.43182 56.8241 5.81818 60.0665 5.81818C63.3999 5.81818 66.3014 6.40909 68.7711 7.59091C71.2559 8.75757 73.1877 10.3788 74.5665 12.4545C75.9453 14.5303 76.6347 16.9091 76.6347 19.5909C76.6347 21.3485 76.2862 23.0833 75.5892 24.7955C74.9074 26.5076 73.6877 28.4091 71.9302 30.5C70.1726 32.5758 67.6953 35.0682 64.4983 37.9773L57.7029 44.6364V44.9545H77.2483V53H44.0665ZM101.379 53.6364C98.1669 53.6364 95.3033 53.0455 92.7881 51.8636C90.2881 50.6818 88.3033 49.053 86.8336 46.9773C85.3639 44.9015 84.5987 42.5227 84.5381 39.8409H94.0836C94.1896 41.6439 94.9472 43.1061 96.3563 44.2273C97.7654 45.3485 99.4396 45.9091 101.379 45.9091C102.924 45.9091 104.288 45.5682 105.47 44.8864C106.667 44.1894 107.599 43.2273 108.265 42C108.947 40.7576 109.288 39.3333 109.288 37.7273C109.288 36.0909 108.94 34.6515 108.243 33.4091C107.561 32.1667 106.614 31.197 105.402 30.5C104.19 29.803 102.803 29.447 101.243 29.4318C99.879 29.4318 98.5533 29.7121 97.2654 30.2727C95.9927 30.8333 95.0002 31.5985 94.2881 32.5682L85.5381 31L87.7427 6.45454H116.197V14.5H95.8563L94.6517 26.1591H94.9245C95.7427 25.0076 96.9775 24.053 98.629 23.2955C100.281 22.5379 102.129 22.1591 104.174 22.1591C106.978 22.1591 109.478 22.8182 111.674 24.1364C113.871 25.4545 115.606 27.2652 116.879 29.5682C118.152 31.8561 118.781 34.4924 118.765 37.4773C118.781 40.6136 118.053 43.4015 116.584 45.8409C115.129 48.2652 113.091 50.1742 110.47 51.5682C107.864 52.947 104.834 53.6364 101.379 53.6364ZM143.879 54.0227C139.97 54.0076 136.606 53.0455 133.788 51.1364C130.985 49.2273 128.826 46.4621 127.311 42.8409C125.811 39.2197 125.068 34.8636 125.084 29.7727C125.084 24.697 125.834 20.3712 127.334 16.7955C128.849 13.2197 131.008 10.5 133.811 8.63636C136.629 6.75757 139.985 5.81818 143.879 5.81818C147.773 5.81818 151.121 6.75757 153.924 8.63636C156.743 10.5152 158.909 13.2424 160.424 16.8182C161.94 20.3788 162.69 24.697 162.674 29.7727C162.674 34.8788 161.917 39.2424 160.402 42.8636C158.902 46.4848 156.75 49.25 153.947 51.1591C151.144 53.0682 147.788 54.0227 143.879 54.0227ZM143.879 45.8636C146.546 45.8636 148.674 44.5227 150.265 41.8409C151.856 39.1591 152.644 35.1364 152.629 29.7727C152.629 26.2424 152.265 23.303 151.538 20.9545C150.826 18.6061 149.811 16.8409 148.493 15.6591C147.19 14.4773 145.652 13.8864 143.879 13.8864C141.228 13.8864 139.106 15.2121 137.515 17.8636C135.924 20.5152 135.121 24.4848 135.106 29.7727C135.106 33.3485 135.462 36.3333 136.174 38.7273C136.902 41.1061 137.924 42.8939 139.243 44.0909C140.561 45.2727 142.106 45.8636 143.879 45.8636ZM169.964 53V6.45454H179.805V26.9773H180.419L197.169 6.45454H208.964L191.692 27.2955L209.169 53H197.396L184.646 33.8636L179.805 39.7727V53H169.964Z" fill="#FDA656"/>
</svg>
